:version 1.10
:name ASF
:units
  mass 1
  length 1
  angle deg
:documentation
  ASF file generated by Kaydara
:root
  axis xyz
  order  tx ty tz rx ry rz
  position 0 0 0
  orientation 0 0 0
:bonedata
  begin
    id 1
    name RightUpLegDummy
    direction -0.65628 -0.754516 0.00165102
    length 4.76918
    axis 0 0 0 xyz
  end
  begin
    id 2
    name RightUpLeg
    direction -0.145584 -0.923362 0.355256
    length 17.9961
    axis -24.7611 -13.1006 1.78531 xyz
    dof rx ry rz
  end
  begin
    id 3
    name RightLeg
    direction 0.263379 0.172355 -0.949171
    length 13.3386
    axis 89.6202 -21.1929 12.3855 xyz
    dof rx ry rz
  end
  begin
    id 4
    name RightFoot
    direction 0.224283 -0.968777 -0.105675
    length 5.86697
    axis 56.995 -39.6905 17.3365 xyz
    dof rx ry rz
  end
  begin
    id 5
    name RightToes
    direction -0.0806345 -0.9037 0.420506
    length 4.75197
    axis 146.825 -39.7828 17.6019 xyz
    dof rx ry rz
  end
  begin
    id 6
    name SpineDummy
    direction -3.39852e-014 1 9.33296e-014
    length 8.13779
    axis 0 0 0 xyz
  end
  begin
    id 7
    name Spine
    direction -0.156609 0.733703 0.661176
    length 7.14978
    axis 41.2365 5.68757 17.0844 xyz
    dof rx ry rz
  end
  begin
    id 8
    name Spine1
    direction 0 0 0
    length 0
    axis 42.8809 47.8308 -3.36039 xyz
    dof rx ry rz
  end
  begin
    id 9
    name HEadDummy
    direction 0.546431 0.701947 0.456819
    length 3.55512
    axis 42.8809 47.8308 -3.36039 xyz
  end
  begin
    id 10
    name HEad
    direction 0.23444 0.828559 0.508457
    length 7.35827
    axis 51.1864 49.2662 27.4903 xyz
    dof rx ry rz
  end
  begin
    id 11
    name LeftShoulder1Dummy
    direction 0.431183 0.475873 -0.766568
    length 2.49352
    axis 42.8809 47.8308 -3.36039 xyz
  end
  begin
    id 12
    name LeftShoulder1
    direction 0.268187 -0.383402 -0.883786
    length 4.48604
    axis -119.517 0.106469 35.1736 xyz
    dof rx ry rz
  end
  begin
    id 13
    name LeftArm
    direction 0.380567 -0.703221 -0.600541
    length 10.1142
    axis -5.41825 36.2925 7.8293 xyz
    dof rx ry rz
  end
  begin
    id 14
    name LeftForeArm
    direction 0.541071 -0.732356 -0.413396
    length 9.39839
    axis 4.65387 33.7604 7.81644 xyz
    dof rx ry rz
  end
  begin
    id 15
    name LeftHand
    direction 0.847511 -0.389379 -0.360707
    length 3.66142
    axis 7.65593 21.1436 -24.6758 xyz
    dof rx ry rz
  end
  begin
    id 16
    name RightShoulderDummy
    direction -0.692546 0.541855 0.476208
    length 2.49352
    axis 42.8809 47.8308 -3.36039 xyz
  end
  begin
    id 17
    name RightShoulder
    direction -0.870808 -0.316653 0.376065
    length 4.48602
    axis 141.571 51.133 -100.254 xyz
    dof rx ry rz
  end
  begin
    id 18
    name RightArm
    direction 0.366897 -0.87275 0.322015
    length 10.1142
    axis 92.3258 71.2036 138.917 xyz
    dof rx ry rz
  end
  begin
    id 19
    name RightForeArm
    direction 0.702487 -0.694568 0.155197
    length 9.39835
    axis 153.863 41.5092 -176.604 xyz
    dof rx ry rz
  end
  begin
    id 20
    name RightHand
    direction 0.79502 -0.601276 0.0800636
    length 3.66142
    axis 154.247 4.59222 142.9 xyz
    dof rx ry rz
  end
  begin
    id 21
    name LeftUpLegDummy
    direction 0.65628 -0.754516 0.00165102
    length 4.76919
    axis 0 0 0 xyz
  end
  begin
    id 22
    name LeftUpLeg
    direction -0.1277 -0.689368 0.713067
    length 17.9961
    axis -48.3385 -17.8675 0.791927 xyz
    dof rx ry rz
  end
  begin
    id 23
    name LeftLeg
    direction 0.109849 -0.991246 -0.0732378
    length 13.3386
    axis -2.05791 -7.30784 1.72042 xyz
    dof rx ry rz
  end
  begin
    id 24
    name LeftFoot
    direction 0.0448355 -0.272614 0.961078
    length 5.86697
    axis -18.7733 -7.89606 10.2113 xyz
    dof rx ry rz
  end
  begin
    id 25
    name LeftToes
    direction -0.18506 0.293668 0.937823
    length 4.75197
    axis 71.2267 -7.89606 10.2113 xyz
    dof rx ry rz
  end
:hierarchy
  begin
    root RightUpLegDummy SpineDummy LeftUpLegDummy
    RightUpLegDummy RightUpLeg
    RightUpLeg RightLeg
    RightLeg RightFoot
    RightFoot RightToes
    SpineDummy Spine
    Spine Spine1
    Spine1 HEadDummy LeftShoulder1Dummy RightShoulderDummy
    HEadDummy HEad
    LeftShoulder1Dummy LeftShoulder1
    LeftShoulder1 LeftArm
    LeftArm LeftForeArm
    LeftForeArm LeftHand
    RightShoulderDummy RightShoulder
    RightShoulder RightArm
    RightArm RightForeArm
    RightForeArm RightHand
    LeftUpLegDummy LeftUpLeg
    LeftUpLeg LeftLeg
    LeftLeg LeftFoot
    LeftFoot LeftToes
  end

:SAMPLES-PER-SECOND 30
:FULLY-SPECIFIED
:DEGREES
137
root  -3.60932 35.2659 3.23997 173.293 -16.9743 -177.222
RightUpLeg  -9.04463 24.0995 4.58971
RightLeg  -67.8186 -10.3349 -7.33132
RightFoot  24.7719 0.399424 -10.3804
RightToes  -1.27222e-014 -6.36111e-015 6.36111e-015
Spine  -24.6187 5.40341 9.70597
Spine1  7.86071 -2.42038 14.3901
HEad  7.51535 -74.7182 -12.8161
LeftShoulder1  6.36111e-015 -1.33558e-015 6.49777e-015
LeftArm  21.0314 -43.2624 -35.3458
LeftForeArm  -62.4878 -70.13 75.4738
LeftHand  -0.644632 -0.637564 -5.13373
RightShoulder  -4.77083e-015 -6.36111e-015 -3.18055e-015
RightArm  27.9672 19.9498 28.5866
RightForeArm  -19.785 -7.12713 -10.2886
RightHand  -2.26889 12.3454 5.41552
LeftUpLeg  32.4697 23.6938 13.8405
LeftLeg  28.492 -4.60056 0.0921079
LeftFoot  -10.2702 2.21109 -10.7483
LeftToes  1.27222e-014 1.09105e-011 6.96064e-012
138
root  -3.63112 34.9356 3.58387 172.652 -12.7468 -175.663
RightUpLeg  -9.86083 24.3217 6.25956
RightLeg  -65.9479 -5.73335 -15.3536
RightFoot  23.4742 -2.48663 -5.96404
RightToes  -1.27222e-014 -6.36111e-015 6.36111e-015
Spine  -25.3122 5.37657 10.1451
Spine1  7.09205 -3.41445 17.8114
HEad  4.91563 -67.4462 -13.3978
LeftShoulder1  6.36111e-015 -1.33558e-015 6.49777e-015
LeftArm  20.0894 -42.8407 -34.8236
LeftForeArm  -57.5709 -68.581 67.8887
LeftHand  -0.58563 -0.551727 -4.74638
RightShoulder  -4.77083e-015 -6.36111e-015 -3.18055e-015
RightArm  26.0589 19.0271 26.595
RightForeArm  -20.4402 -4.89311 -11.5324
RightHand  -2.20281 11.3252 7.94063
LeftUpLeg  37.2461 25.3666 15.1614
LeftLeg  22.369 0.757327 3.01048
LeftFoot  -19.3931 0.826186 -6.24933
LeftToes  1.27222e-014 1.09105e-011 6.96064e-012
139
root  -3.63793 34.8138 3.93529 172.312 -11.9082 -176.077
RightUpLeg  -10.5426 24.9751 6.34785
RightLeg  -65.8424 -6.52089 -13.8689
RightFoot  23.9893 -2.11202 -6.65968
RightToes  -1.27222e-014 -6.36111e-015 6.36111e-015
Spine  -27.0006 1.4819 7.7616
Spine1  6.92138 -6.3853 23.9673
HEad  0.259405 -58.2594 -10.9353
LeftShoulder1  6.36111e-015 -1.33558e-015 6.49777e-015
LeftArm  19.0701 -40.7877 -34.6394
LeftForeArm  -61.8032 -66.6951 70.6869
LeftHand  -0.251381 -0.0149343 -2.93656
RightShoulder  -4.77083e-015 -6.36111e-015 -3.18055e-015
RightArm  20.6709 9.97626 20.775
RightForeArm  -21.7147 3.18756 -16.416
RightHand  -1.90263 7.78267 9.29047
LeftUpLeg  37.6121 26.1063 13.943
LeftLeg  20.1583 3.38154 4.05738
LeftFoot  -23.2005 0.504193 -4.78382
LeftToes  1.27222e-014 1.09105e-011 6.96064e-012
140
root  -3.74882 34.827 4.18582 172.091 -12.2 -177.864
RightUpLeg  -11.7403 24.7955 5.15434
RightLeg  -65.1668 -10.9071 -6.04645
RightFoot  25.2856 -2.32503 -6.78992
RightToes  -1.27222e-014 -6.36111e-015 6.36111e-015
Spine  -28.5098 -3.77475 5.06337
Spine1  7.35452 -10.025 29.1571
HEad  -0.856277 -48.5561 -10.1439
LeftShoulder1  6.36111e-015 -1.33558e-015 6.49777e-015
LeftArm  19.1201 -41.0823 -35.856
LeftForeArm  -68.0511 -66.1386 77.9535
LeftHand  0.046645 0.504721 -1.69216
RightShoulder  -4.77083e-015 -6.36111e-015 -3.18055e-015
RightArm  18.6987 0.292201 16.2016
RightForeArm  -25.8336 7.80987 -21.0591
RightHand  -1.25904 3.75296 6.44982
LeftUpLeg  36.0091 27.1322 11.8058
LeftLeg  22.1172 2.33078 3.8694
LeftFoot  -20.2427 0.751736 -5.97691
LeftToes  1.27222e-014 1.09105e-011 6.96064e-012
141
root  -3.93957 34.7661 4.31531 171.476 -11.6349 -179.738
RightUpLeg  -13.3751 21.4164 4.55466
RightLeg  -59.5848 -13.2319 -2.55841
RightFoot  23.1942 -5.86766 -1.15164
RightToes  -1.27222e-014 -6.36111e-015 6.36111e-015
Spine  -28.9427 -8.40991 2.97765
Spine1  6.34512 -13.3918 33.8362
HEad  2.4739 -39.0438 -13.5056
LeftShoulder1  6.36111e-015 -1.33558e-015 6.49777e-015
LeftArm  21.2245 -46.2696 -39.0184
LeftForeArm  -64.7207 -68.2942 76.1984
LeftHand  0.158193 0.889683 -2.04057
RightShoulder  -4.77083e-015 -6.36111e-015 -3.18055e-015
RightArm  19.2703 -3.96013 14.0344
RightForeArm  -26.5589 6.57217 -20.4293
RightHand  -0.519497 2.08272 1.48068
LeftUpLeg  35.616 27.6075 9.55706
LeftLeg  24.0796 -1.39585 1.96674
LeftFoot  -17.1249 1.10601 -7.41133
LeftToes  1.27222e-014 1.09105e-011 6.96064e-012
142
root  -4.09323 34.4729 4.37027 170.604 -10.4928 178.747
RightUpLeg  -14.1895 15.2047 6.13822
RightLeg  -51.3558 -11.7531 -4.34831
RightFoot  19.487 -6.42116 1.31959
RightToes  -1.27222e-014 -6.36111e-015 6.36111e-015
Spine  -28.6695 -13.1959 -0.348624
Spine1  3.46148 -16.2825 41.6207
HEad  6.05633 -29.1287 -19.0676
LeftShoulder1  6.36111e-015 -1.33558e-015 6.49777e-015
LeftArm  25.7101 -55.2383 -43.903
LeftForeArm  -45.8136 -70.137 56.6423
LeftHand  0.236672 0.995687 -1.62131
RightShoulder  -4.77083e-015 -6.36111e-015 -3.18055e-015
RightArm  20.2727 -1.61984 14.0047
RightForeArm  -23.8334 1.61119 -16.1222
RightHand  -0.0441142 1.012 -1.04747
LeftUpLeg  37.0747 27.9225 7.3949
LeftLeg  23.9203 -4.64873 0.0019814
LeftFoot  -19.9042 0.828206 -6.49938
LeftToes  1.27222e-014 1.09105e-011 6.96064e-012
143
root  -4.23038 34.0264 4.38675 170.39 -9.79895 177.429
RightUpLeg  -14.2305 8.19599 9.14528
RightLeg  -47.6894 -11.7928 -4.20601
RightFoot  19.1715 0.844652 -9.49744
RightToes  -1.27222e-014 -6.36111e-015 6.36111e-015
Spine  -28.6015 -18.8469 -5.41718
Spine1  0.728556 -18.6551 53.0533
HEad  6.73912 -18.8902 -23.7545
LeftShoulder1  6.36111e-015 -1.33558e-015 6.49777e-015
LeftArm  30.7483 -64.0296 -48.465
LeftForeArm  -29.1387 -68.1893 38.2519
LeftHand  0.624039 1.37461 0.877117
RightShoulder  -4.77083e-015 -6.36111e-015 -3.18055e-015
RightArm  19.9263 1.89795 13.6476
RightForeArm  -22.4559 -2.22532 -13.4489
RightHand  0.362342 -1.25684 -0.990583
LeftUpLeg  38.8409 29.687 6.43622
LeftLeg  22.2225 -4.74831 -0.0809825
LeftFoot  -25.9067 0.34633 -3.91531
LeftToes  1.27222e-014 1.09105e-011 6.96064e-012
144
root  -4.46039 33.6666 4.36365 170.985 -8.94632 176.244
RightUpLeg  -14.4928 4.30535 11.4872
RightLeg  -49.2937 -15.7997 -0.518785
RightFoot  19.5806 10.4695 -24.6681
RightToes  -1.27222e-014 -6.36111e-015 6.36111e-015
Spine  -28.4782 -24.2037 -9.97965
Spine1  -0.974137 -20.6625 63.8473
HEad  5.32146 -9.29643 -26.7401
LeftShoulder1  6.36111e-015 -1.33558e-015 6.49777e-015
LeftArm  28.0601 -68.9232 -46.0793
LeftForeArm  -27.4855 -66.3573 35.0328
LeftHand  -0.162317 -0.800833 1.93975
RightShoulder  -4.77083e-015 -6.36111e-015 -3.18055e-015
RightArm  16.7607 -0.570995 10.5305
RightForeArm  -23.0544 -0.483568 -14.6162
RightHand  0.944536 -3.72507 -1.82026
LeftUpLeg  40.3176 33.2717 8.08097
LeftLeg  20.5491 -2.89075 0.862082
LeftFoot  -29.6012 0.15985 -1.41796
LeftToes  1.27222e-014 1.09105e-011 6.96064e-012
